<?xml version="1.0" encoding="UTF-8"?>
<svg width="80px" height="80px" viewBox="0 0 80 80" version="1.1" xmlns="http://www.w3.org/2000/svg" xmlns:xlink="http://www.w3.org/1999/xlink">
    <!-- Generator: Sketch 58 (84663) - https://sketch.com -->
    <title>Icons/h2a</title>
    <desc>Created with Sketch.</desc>
    <g id="Icons/h2a" stroke="none" stroke-width="1" fill="none" fill-rule="evenodd">
        <rect id="Rectangle" x="0" y="0" width="80" height="80"></rect>
        <path d="M39.5467126,14.9195402 C33.9703605,14.9195402 29.4301113,19.4590437 29.4301113,25.0344828 C29.4301113,30.6099126 33.9703586,35.1494253 39.5467126,35.1494253 C45.1230657,35.1494253 49.663314,30.6099126 49.663314,25.0344828 C49.663314,19.4590437 45.1230639,14.9195402 39.5467126,14.9195402 Z M39.5467126,16.7586207 C44.1289885,16.7586207 47.823932,20.4529563 47.823932,25.0344828 C47.823932,29.616 44.1289885,33.3103448 39.5467126,33.3103448 C34.9644359,33.3103448 31.2694933,29.616 31.2694933,25.0344828 C31.2694933,20.4529563 34.9644359,16.7586207 39.5467126,16.7586207 Z M15.6347467,22.2758621 C11.0742538,22.2758621 7.35752736,25.9919816 7.35752736,30.5517241 C7.35752736,35.1114575 11.0742538,38.8275862 15.6347467,38.8275862 C20.1952377,38.8275862 23.9119651,35.1114575 23.9119651,30.5517241 C23.9119651,25.9919816 20.1952377,22.2758621 15.6347467,22.2758621 Z M63.4586795,22.2758621 C58.8981894,22.2758621 55.1814602,25.9919816 55.1814602,30.5517241 C55.1814602,35.1114575 58.8981885,38.8275862 63.4586795,38.8275862 C68.0191706,38.8275862 71.7358979,35.1114575 71.7358979,30.5517241 C71.7358979,25.9919816 68.0191697,22.2758621 63.4586795,22.2758621 Z M15.6347467,24.1149425 C19.2011586,24.1149425 22.072583,26.9858943 22.072583,30.5517241 C22.072583,34.1175448 19.2011586,36.9885057 15.6347467,36.9885057 C12.0683338,36.9885057 9.19690943,34.1175448 9.19690943,30.5517241 C9.19690943,26.9858943 12.0683338,24.1149425 15.6347467,24.1149425 Z M63.4586795,24.1149425 C67.0250943,24.1149425 69.8965168,26.9858943 69.8965168,30.5517241 C69.8965168,34.1175448 67.0250933,36.9885057 63.4586795,36.9885057 C59.8922657,36.9885057 57.0208423,34.1175448 57.0208423,30.5517241 C57.0208423,26.9858943 59.8922648,24.1149425 63.4586795,24.1149425 Z M39.5467126,40.6666667 C33.9697343,40.6666667 28.9430713,43.486823 25.1478005,48.2815816 C22.6223586,46.2480184 19.6788975,45.2643862 16.5831779,45.2643862 C8.64387126,45.2643862 2.1593943,52.5226851 0.0287393103,62.5344552 C-0.0320888705,62.8058082 0.0331557987,63.0901084 0.206216615,63.3078034 C0.379277431,63.5254983 0.641566351,63.6532058 0.919689931,63.6551908 L27.5907292,63.6551908 C27.5907292,70.2461793 32.9544883,75.6092138 39.5467126,75.6092138 C46.1389379,75.6092138 51.5026961,70.2461793 51.5026961,63.6551908 L78.1737352,63.6551908 C78.4518588,63.6532058 78.7141478,63.5254984 78.8872086,63.3078034 C79.0602695,63.0901085 79.1255142,62.8058082 79.064686,62.5344552 C76.9340313,52.5226851 70.449554,45.2643862 62.5102483,45.2643862 C59.4145287,45.2643862 56.4710667,46.2480184 53.9456248,48.2815816 C50.1503549,43.486823 45.123691,40.6666667 39.5467126,40.6666667 Z M39.5467126,42.5057471 C48.0613701,42.5057471 55.4359347,49.9856736 58.1704561,61.8161103 L51.358994,61.8161103 C50.4625582,56.1053057 45.5061508,51.7011678 39.5467126,51.7011678 C33.5872754,51.7011678 28.6308671,56.1053057 27.7344313,61.8161103 L20.9229692,61.8161103 C23.6574832,49.9856736 31.0320543,42.5057471 39.5467126,42.5057471 Z M16.5831779,47.1034667 C19.3354694,47.1034667 21.8612129,47.9516506 24.0844074,49.7758345 C21.8141076,53.0892138 20.0799761,57.166731 19.0548469,61.8161103 L2.1842651,61.8161103 C4.42366161,53.0200644 10.0659908,47.1034667 16.5831779,47.1034667 Z M62.5102483,47.1034667 C69.0274354,47.1034667 74.6697646,53.0200644 76.9091605,61.8161103 L60.0385784,61.8161103 C59.0134464,57.166731 57.2793177,53.0892138 55.0090179,49.7758345 C57.2322124,47.9516506 59.7579559,47.1034667 62.5102483,47.1034667 Z M39.5467126,53.5402483 C45.1448487,53.5402483 49.663314,58.0579494 49.663314,63.6551908 C49.663314,69.2523402 45.1448395,73.7701333 39.5467126,73.7701333 C33.9485857,73.7701333 29.4301113,69.2523402 29.4301113,63.6551908 C29.4301113,58.0579494 33.9485766,53.5402483 39.5467126,53.5402483 Z M39.4317517,59.028708 C38.957986,59.0880612 38.6084214,59.5000002 38.6270216,59.9770299 L38.6270216,62.7356506 L35.8679485,62.7356506 C35.8105946,62.7302513 35.7528601,62.7302513 35.6955062,62.7356506 C35.1875749,62.7832615 34.8144179,63.2335498 34.8620365,63.7413978 C34.9096551,64.2492458 35.3600172,64.6223418 35.8679485,64.574731 L38.6270216,64.574731 L38.6270216,67.3333517 C38.6223313,67.6649707 38.7965904,67.9734259 39.0830717,68.1406039 C39.3695531,68.3077819 39.7238722,68.3077819 40.0103535,68.1406039 C40.2968349,67.9734259 40.471094,67.6649707 40.4664037,67.3333517 L40.4664037,64.574731 L43.2254768,64.574731 C43.5571504,64.579421 43.8656566,64.4051905 44.0328622,64.118756 C44.2000679,63.8323215 44.2000679,63.4780601 44.0328622,63.1916256 C43.8656566,62.9051911 43.5571504,62.7309607 43.2254768,62.7356506 L40.4664037,62.7356506 L40.4664037,59.9770299 C40.4769812,59.7069137 40.3681595,59.4458249 40.1688614,59.263156 C39.9695633,59.0804871 39.6999764,58.9947412 39.4317517,59.028708 Z" id="Shape" fill="#212121"></path>
    </g>
</svg>