<?xml version="1.0" encoding="utf-8"?>
<!-- Generator: Adobe Illustrator 22.0.1, SVG Export Plug-In . SVG Version: 6.00 Build 0)  -->
<svg version="1.1" id="_x32_fc25238-5e80-4d08-b11d-3b68d1d3e3c9"
	 xmlns="http://www.w3.org/2000/svg" xmlns:xlink="http://www.w3.org/1999/xlink" x="0px" y="0px" width="24px" height="24px"
	 viewBox="0 0 24 24" style="enable-background:new 0 0 24 24;" xml:space="preserve">
<style type="text/css">
	.st0{fill:#436823;}
	.st1{fill:#657F4C;}
	.st2{fill:#3B4745;}
	.st3{fill:#343A2D;}
	.st4{fill:#809668;}
	.st5{fill:#FFF7CA;}
	.st6{fill:#4E6338;}
</style>
<title>crop_black_gram</title>
<polygon class="st0" points="14.1,11.4 13.6,12 15.3,20.1 16,20 "/>
<path class="st1" d="M21.2,10.8l-5.8-0.5l1.8-5.6C17.4,4.1,17.5,2,17.1,2s-1.5,1.6-1.7,2.1l-1.7,5.3l-1.1-2c-0.2-0.3-1.2-1-1.5-0.8
	S10.9,8.1,11,8.4l0.7,1.2l-3.8-2C7.4,7.3,5.3,6.9,5.2,7.2s1.3,1.7,1.8,2l4.8,2.5l-4.9,2.9c-0.5,0.3-1.9,1.8-1.7,2.1s2.1-0.2,2.7-0.5
	l5.4-3.2c0.4-0.2,0.6-0.6,0.5-1.1c0.1-0.1,0.1-0.1,0.2-0.2c0-0.1,0-0.1,0.1-0.2c0.2,0.3,0.5,0.4,0.8,0.5l6.2,0.5
	c0.6,0,2.6-0.4,2.6-0.7S21.8,10.8,21.2,10.8z"/>
<path class="st2" d="M8.3,20c-0.4,0-0.8,0.2-0.9,0.7c0.1,0.4,0.5,0.7,0.9,0.7c0.4,0.1,0.8-0.2,0.9-0.7C9.2,20.4,8.8,20,8.3,20z"/>
<path class="st3" d="M6.2,20c-0.4-0.2-0.8-0.2-1.1,0.2c-0.1,0.4,0.1,0.8,0.5,1c0.4,0.2,0.8,0.2,1.1-0.2C6.8,20.6,6.6,20.2,6.2,20z"
	/>
<path class="st3" d="M13.8,20.2c-0.3-0.3-0.7-0.3-1,0c-0.3,0.3-0.3,0.7,0,1c0.1,0.1,0.2,0.2,0.3,0.2c0.3,0.3,0.7,0.3,1,0
	c0.3-0.3,0.3-0.7,0-1C14,20.3,13.9,20.2,13.8,20.2z"/>
<path class="st3" d="M10.8,19.7c-0.4-0.3-0.8-0.2-1.1,0.2c-0.1,0.4,0.1,0.8,0.4,1c0.4,0.2,0.8,0.2,1.1-0.2
	C11.4,20.3,11.2,19.9,10.8,19.7z"/>
<path class="st3" d="M8.2,19.6c-0.4-0.2-0.8-0.2-1.1,0.2c-0.1,0.4,0.1,0.8,0.5,1c0.4,0.3,0.8,0.2,1.1-0.2
	C8.8,20.2,8.6,19.8,8.2,19.6z"/>
<path class="st2" d="M9.1,18.9c-0.4-0.2-0.8-0.2-1.1,0.2c-0.1,0.4,0.1,0.8,0.4,1c0.4,0.2,0.8,0.2,1.1-0.2
	C9.7,19.5,9.5,19.1,9.1,18.9z"/>
<path class="st3" d="M9.7,20.2c-0.4-0.1-0.8,0.2-0.9,0.7c0,0.4,0.4,0.7,0.9,0.7c0.4,0.1,0.8-0.2,0.9-0.7
	C10.5,20.4,10.1,20.1,9.7,20.2z"/>
<path class="st2" d="M10.2,20.3c-0.2-0.1-0.3-0.1-0.5-0.1c-0.4-0.1-0.8,0.2-0.9,0.7c0,0.1,0,0.1,0,0.2c0.2,0.1,0.3,0.1,0.5,0.1
	c0.4,0.1,0.8-0.3,0.9-0.7C10.2,20.4,10.2,20.4,10.2,20.3z"/>
<path class="st4" d="M12.3,11.5l-5.4,3.2c-0.6,0.4-1,0.9-1.5,1.4c0.5-0.1,1-0.2,1.4-0.5l5.5-3.7c0.4-0.3,0.5-0.2,0.4-0.6
	C12.6,11.3,12.4,11.4,12.3,11.5z"/>
<path class="st4" d="M11.2,6.6c0.2,0.1,0.5,0.3,0.7,0.4c0.4,0.4,2.4,3.6,2.4,3.6l-0.9-1.9l-0.7-1.3C12.5,7.2,11.5,6.5,11.2,6.6z"/>
<path class="st5" d="M10,20.4H9.4c0,0-0.1,0-0.1,0.1c0,0,0,0.1,0.1,0.1c0,0,0,0,0,0H10C10,20.6,10,20.5,10,20.4
	C10,20.5,10,20.4,10,20.4z"/>
<path class="st3" d="M12,20.1c-0.4-0.2-0.8-0.2-1.1,0.2c-0.1,0.4,0.1,0.8,0.4,1c0.4,0.2,0.8,0.2,1.1-0.2
	C12.6,20.7,12.4,20.3,12,20.1z"/>
<path class="st2" d="M12,20.1c-0.4-0.2-0.8-0.2-1.1,0.2c0,0-0.1,0.1-0.1,0.2c0.1,0.2,0.2,0.3,0.4,0.4c0.4,0.2,0.8,0.2,1.1-0.2
	c0-0.1,0-0.1,0-0.2C12.3,20.3,12.1,20.2,12,20.1z"/>
<path class="st5" d="M12.1,20.4l-0.5-0.3c0,0-0.1,0-0.1,0c0,0,0,0.1,0,0.1l0.5,0.3c0,0,0.1,0,0.1,0c0,0,0,0,0,0
	C12.1,20.5,12.1,20.5,12.1,20.4z"/>
<path class="st3" d="M4,19.9c-0.4-0.2-0.8-0.2-1.1,0.2c-0.1,0.4,0.1,0.8,0.5,1c0.4,0.3,0.8,0.2,1.1-0.2C4.6,20.5,4.4,20.1,4,19.9z"
	/>
<path class="st2" d="M4,19.9c-0.4-0.2-0.8-0.2-1.1,0.2c0,0,0,0.1-0.1,0.2c0.1,0.2,0.2,0.3,0.4,0.4c0.4,0.2,0.8,0.2,1.1-0.2
	c0-0.1,0-0.1,0-0.2C4.3,20.1,4.1,20,4,19.9z"/>
<path class="st5" d="M4.1,20.2L3.6,20c0,0-0.1,0-0.1,0c0,0,0,0.1,0,0.1L4,20.4c0,0,0.1,0,0.1,0C4.1,20.4,4.1,20.3,4.1,20.2
	C4.1,20.2,4.1,20.2,4.1,20.2z"/>
<path class="st3" d="M10.9,18.7c-0.4-0.2-0.8-0.2-1.1,0.2c-0.1,0.4,0.1,0.8,0.5,1c0.4,0.2,0.8,0.2,1.1-0.2
	C11.5,19.3,11.3,18.9,10.9,18.7z"/>
<path class="st2" d="M10.9,18.7c-0.4-0.2-0.8-0.2-1.1,0.2c0,0.1,0,0.1,0,0.2c0.1,0.2,0.2,0.3,0.4,0.4c0.4,0.3,0.8,0.2,1.1-0.2
	c0-0.1,0-0.1,0-0.2C11.2,19,11,18.8,10.9,18.7z"/>
<path class="st5" d="M11,19.1l-0.5-0.3c0,0-0.1,0-0.1,0c0,0,0,0.1,0,0.1c0,0,0,0,0,0l0.5,0.3c0,0,0.1,0,0.1,0c0,0,0,0,0,0
	C11,19.1,11,19.1,11,19.1z"/>
<path class="st3" d="M7.3,19c-0.4-0.2-0.8-0.2-1.1,0.2c-0.1,0.4,0.1,0.8,0.5,1C7,20.4,7.5,20.3,7.7,20C7.9,19.6,7.7,19.2,7.3,19z"/>
<path class="st2" d="M7.3,19c-0.4-0.2-0.8-0.2-1.1,0.2c0,0.1,0,0.1,0,0.2c0.1,0.2,0.2,0.3,0.4,0.4c0.4,0.3,0.8,0.2,1.1-0.2
	c0-0.1,0.1-0.1,0.1-0.2C7.6,19.2,7.5,19.1,7.3,19z"/>
<path class="st5" d="M7.4,19.4l-0.5-0.3c0,0-0.1,0-0.1,0c0,0,0,0,0,0c0,0,0,0.1,0,0.1l0.5,0.3c0,0,0.1,0,0.1,0
	C7.4,19.4,7.4,19.4,7.4,19.4C7.4,19.4,7.4,19.4,7.4,19.4z"/>
<path class="st4" d="M15.4,4.1l-1.7,5.3l0.3,0.7c0.2-0.1,0.3-0.3,0.3-0.5l1.9-6c0.1-0.4,0.1-0.8,0.1-1.2C16,3,15.7,3.5,15.4,4.1z"/>
<path class="st6" d="M13.8,12C13.8,12,13.8,12,13.8,12c-0.2-0.2-0.3-0.3-0.3-0.3s-0.4,0.8-0.8,1s-4.3,2.6-4.8,2.9s-1.9,0.7-2.7,0.9
	c0,0,0,0,0,0c0,0.1,0,0.2,0,0.2c0.2,0.3,2.1-0.2,2.7-0.5l5.4-3.2C13.6,12.9,13.8,12.4,13.8,12z"/>
<path class="st6" d="M21.1,12.6c0.6,0,2.6-0.4,2.6-0.7c0,0,0,0,0-0.1c0,0,0,0,0,0c-0.2-0.2-1.1,0.1-2.2,0s-6.6-1.1-7.4-0.6
	c-0.3,0.1-0.3,0.4-0.2,0.6c0,0,0,0,0,0c0-0.1,0-0.1,0-0.2c0.2,0.3,0.5,0.4,0.8,0.5L21.1,12.6z"/>
<path class="st6" d="M15.2,10.3l-0.7-0.1c0,0,2-5,2.1-5.9s0.2-1.8,0.4-1.4s-0.4,3-0.6,3.8L15.2,10.3z"/>
<path class="st6" d="M11.7,11.7l0.8-0.4c0,0-5.1-2.5-5.7-2.8C6.3,8.2,5.4,6.9,5.3,7.2C5.2,7.6,6.1,9,11.7,11.7z"/>
<path class="st6" d="M11,8.1c-0.2-0.6,0-1.6,0.3-1.3s1.2,1.2,1.5,1.9s1.3,2.7,1.3,2.7s-0.3,0.5-0.3,0.5s-1.1-0.4-1.2-0.6
	S11.3,8.8,11,8.1z"/>
</svg>
