<?xml version="1.0" encoding="UTF-8"?>
<svg width="82px" height="80px" viewBox="0 0 82 80" version="1.1" xmlns="http://www.w3.org/2000/svg" xmlns:xlink="http://www.w3.org/1999/xlink">
    <title>Icons/decorative/analytics</title>
    <g id="Page-1" stroke="none" stroke-width="1" fill="none" fill-rule="evenodd">
        <g id="Icons/decorative/analytics" transform="translate(1, 0)">
            <rect id="Rectangle" x="0" y="0" width="80" height="80"></rect>
            <path d="M40.1378385,28.9145216 C41.7604477,28.9145216 43.0805523,30.2346261 43.0805523,31.8572354 L43.0805523,72.2041444 C43.0805523,72.2337473 43.0657508,72.2596499 43.0629756,72.2883277 L51.567335,72.2883277 L51.567335,42.9527741 C51.567335,41.33109 52.8874396,40.0109855 54.5100488,40.0109855 L59.302019,40.0109855 C60.9246282,40.0109855 62.2447328,41.33109 62.2447328,42.9527741 L62.2447328,72.2883277 L75.8195148,72.2883277 C76.33109,72.2883277 76.7446056,72.7018432 76.7446056,73.2134184 C76.7446056,73.7249936 76.33109,74.1385092 75.8195148,74.1385092 L0.925090775,74.1385092 C0.414440667,74.1385092 0,73.7249936 0,73.2134184 C0,72.7018432 0.414440667,72.2883277 0.925090775,72.2883277 L14.2482481,72.2883277 L14.2482481,46.987095 C14.2482481,45.3644858 15.5683526,44.0443812 17.1909619,44.0443812 L21.982007,44.0443812 C23.6046162,44.0443812 24.9247207,45.3644858 24.9247207,46.987095 L24.9247207,72.2883277 L32.4216564,72.2883277 C32.417956,72.2596499 32.4040797,72.2337473 32.4040797,72.2041444 L32.4040797,31.8572354 C32.4040797,30.2346261 33.7241842,28.9145216 35.3467934,28.9145216 Z M21.9810819,45.8945628 L17.1900368,45.8945628 C16.5878027,45.8945628 16.0975046,46.3848609 16.0975046,46.987095 L16.0975046,72.2883277 L23.0736141,72.2883277 L23.0736141,46.987095 C23.0736141,46.3839358 22.583316,45.8945628 21.9810819,45.8945628 Z M40.1378385,30.7647032 L35.3467934,30.7647032 C34.7445593,30.7647032 34.2542612,31.2550013 34.2542612,31.8572354 L34.2542612,72.2041444 C34.2542612,72.2337473 34.2394597,72.2596499 34.2366845,72.2883277 L41.2479475,72.2883277 C41.2451722,72.2596499 41.2303707,72.2337473 41.2303707,72.2041444 L41.2303707,31.8572354 C41.2303707,31.2550013 40.7400726,30.7647032 40.1378385,30.7647032 Z M59.3029441,41.861167 L54.5109739,41.861167 C53.9078147,41.861167 53.4184417,42.3514651 53.4184417,42.9527741 L53.4184417,72.2883277 L60.3954763,72.2883277 L60.3954763,42.9527741 C60.3954763,42.35054 59.9051782,41.861167 59.3029441,41.861167 Z M74.7445593,5 C77.6419436,5 80,7.3562062 80,10.2526654 C80,13.1491246 77.6428687,15.5062559 74.7454844,15.5062559 C73.7759893,15.5062559 72.8703254,15.2370545 72.0895488,14.7772844 L62.5907167,24.5582692 C62.57314,24.5758459 62.5500127,24.5823215 62.5305858,24.5989731 C62.7350309,25.1586531 62.8525174,25.7608872 62.8525174,26.390874 C62.8525174,29.2873332 60.4953861,31.6444645 57.5980018,31.6444645 C54.7006175,31.6444645 52.3434862,29.2873332 52.3434862,26.390874 C52.3434862,25.6045468 52.5220287,24.8607738 52.8328592,24.190083 L42.4265131,16.8975925 C41.7484216,19.0132751 39.7631768,20.5498508 37.4245473,20.5498508 C36.1506973,20.5498508 34.9823076,20.0937811 34.0720183,19.3370568 L21.941303,28.072689 C22.298388,28.7822336 22.5046833,29.5796619 22.5046833,30.4261199 C22.5046833,33.3225792 20.147552,35.6797104 17.2510928,35.6797104 C14.3546335,35.6797104 11.9975023,33.3225792 11.9975023,30.4261199 C11.9975023,27.5296607 14.3546335,25.1725294 17.2510928,25.1725294 C18.6350286,25.1725294 19.8913018,25.7146326 20.8311941,26.5925438 L32.8777261,17.9179676 C32.4299822,17.1464419 32.1700317,16.2518791 32.1700317,15.2971854 C32.1700317,12.4007262 34.527163,10.0435949 37.4245473,10.0435949 C40.15264,10.0435949 42.4015357,12.1352251 42.6531603,14.7985615 L53.890238,22.6738592 C54.8412313,21.7256412 56.1511598,21.1391337 57.5970767,21.1391337 C59.1817572,21.1391337 60.6008465,21.8468281 61.564791,22.9587872 L70.6769352,13.5746664 C69.9359375,12.6690025 69.4900437,11.5126391 69.4900437,10.2535905 C69.4900437,7.35713129 71.847175,5 74.7445593,5 Z M17.2501677,27.0245612 C15.3731585,27.0245612 13.8467587,28.5509609 13.8467587,30.4279701 C13.8467587,32.3049793 15.3731585,33.8313791 17.2501677,33.8313791 C19.1271769,33.8313791 20.6535766,32.3049793 20.6535766,30.4279701 C20.6535766,28.5509609 19.1271769,27.0245612 17.2501677,27.0245612 Z M57.5970767,22.9902403 C55.7191424,22.9902403 54.1927427,24.5166401 54.1927427,26.3936493 C54.1927427,28.2706584 55.7200675,29.7970582 57.5970767,29.7970582 C59.4740859,29.7970582 61.0014108,28.2706584 61.0014108,26.3936493 C61.0014108,24.5166401 59.475011,22.9902403 57.5970767,22.9902403 Z M37.4236222,11.8937765 C35.546613,11.8937765 34.0192881,13.4201762 34.0192881,15.2971854 C34.0192881,17.1741946 35.546613,18.7015195 37.4236222,18.7015195 C39.3006314,18.7015195 40.8279562,17.1741946 40.8279562,15.2971854 C40.8279562,13.4201762 39.3006314,11.8937765 37.4236222,11.8937765 Z M74.7445593,6.85110664 C72.866625,6.85110664 71.3402253,8.37750642 71.3402253,10.2545156 C71.3402253,12.1315248 72.8675501,13.6579246 74.7445593,13.6579246 C76.6215685,13.6579246 78.1488934,12.1315248 78.1488934,10.2545156 C78.1488934,8.37750642 76.6224936,6.85110664 74.7445593,6.85110664 Z" id="Shape" stroke="#000000" stroke-width="0.3" fill="#000000" fill-rule="nonzero"></path>
        </g>
    </g>
</svg>