<?xml version="1.0" encoding="UTF-8"?>
<svg width="80px" height="80px" viewBox="0 0 80 80" version="1.1" xmlns="http://www.w3.org/2000/svg" xmlns:xlink="http://www.w3.org/1999/xlink">
    <!-- Generator: Sketch 58 (84663) - https://sketch.com -->
    <title>Icons/farmloan</title>
    <desc>Created with Sketch.</desc>
    <g id="Icons/farmloan" stroke="none" stroke-width="1" fill="none" fill-rule="evenodd">
        <rect id="Rectangle" x="0" y="0" width="80" height="80"></rect>
        <g id="farm-loans-2" transform="translate(2.000000, 3.000000)">
            <path d="M64.23,25.74 L64.23,25.74 L55.76,10.74 C55.6676835,10.5840846 55.5220427,10.4668616 55.35,10.41 L35.07,1.06 C34.8628352,0.969253366 34.6271648,0.969253366 34.42,1.06 L14.06,10.43 C13.9134821,10.4961406 13.7961406,10.6134821 13.73,10.76 L5.18,25.42 L5.18,25.42 L1.11,32.34 C0.997169508,32.5337599 0.968602377,32.7652711 1.03094794,32.9806466 C1.0932935,33.1960222 1.2411131,33.3764741 1.44,33.48 C1.56283335,33.5446694 1.70174254,33.5724512 1.84,33.56 C2.13347752,33.5419428 2.40413548,33.3956412 2.58,33.16 L5.18,28.76 L5.18,65.33 C5.16806637,65.5500367 5.25097721,65.7646424 5.40774833,65.9195017 C5.56451946,66.074361 5.78012623,66.1546325 6,66.14 L63.66,66.14 C63.8798738,66.1546325 64.0954805,66.074361 64.2522517,65.9195017 C64.4090228,65.7646424 64.4919336,65.5500367 64.48,65.33 L64.48,29.41 L66.48,33.24 C66.6415326,33.4916465 66.9209825,33.6427006 67.22,33.64 C67.3582575,33.6524512 67.4971666,33.6246694 67.62,33.56 C67.8188869,33.4564741 67.9667065,33.2760222 68.0290521,33.0606466 C68.0913976,32.8452711 68.0628305,32.6137599 67.95,32.42 L64.23,25.74 Z M14.96,11.82 L34.67,2.69 L54.38,11.82 L62.68,26.4 L62.68,33.89 L6.68,33.89 L6.68,26.15 L14.96,11.82 Z M35.52,46.11 L39.43,53.93 L35.52,61.5 L35.52,46.11 Z M33.85,61.5 L29.85,53.93 L33.85,46.11 L33.85,61.5 Z M33.61,64.5 L24.4,64.5 L28.97,55.63 L33.61,64.5 Z M40.29,55.63 L44.77,64.5 L35.77,64.5 L40.29,55.63 Z M45.52,62.48 L41.2,53.93 L45.52,45.62 L45.52,62.48 Z M40.37,52.06 L36.13,43.59 L44.77,43.59 L40.37,52.06 Z M28.97,52.14 L24.4,43.59 L33.4,43.59 L28.97,52.14 Z M27.97,53.94 L23.81,62 L23.81,46.06 L27.97,53.94 Z M47.13,64.51 L47.13,42.77 C47.141648,42.5491572 47.0590024,42.3337505 46.902626,42.177374 C46.7462495,42.0209976 46.5308428,41.938352 46.31,41.95 L22.86,41.95 C22.78,41.95 22.78,41.95 22.69,42.03 L22.69,42.03 L22.61,42.12 C22.53,42.12 22.53,42.2 22.45,42.2 C22.4065557,42.2431511 22.3784543,42.2993539 22.37,42.36 C22.37,42.44 22.29,42.44 22.29,42.52 L22.29,64.52 L6.65,64.52 L6.65,35.52 L62.65,35.52 L62.65,64.52 L47.13,64.51 Z" id="Shape" fill="#212121"></path>
            <path d="M22.2,25.26 L22.2,26.15 C22.188352,26.3708428 22.2709976,26.5862495 22.427374,26.742626 C22.5837505,26.8990024 22.7991572,26.981648 23.02,26.97 L46.31,26.97 C46.5308428,26.981648 46.7462495,26.8990024 46.902626,26.742626 C47.0590024,26.5862495 47.141648,26.3708428 47.13,26.15 L47.13,15.48 C47.1419336,15.2599633 47.0590228,15.0453576 46.9022517,14.8904983 C46.7454805,14.735639 46.5298738,14.6553675 46.31,14.67 L23.02,14.67 C22.8001262,14.6553675 22.5845195,14.735639 22.4277483,14.8904983 C22.2709772,15.0453576 22.1880664,15.2599633 22.2,15.48 L22.2,25.26 Z M23.83,17.06 L32.39,20.64 L23.83,24.06 L23.83,17.06 Z M45.52,24.28 L36.72,20.61 L45.52,17.11 L45.52,24.28 Z M43.81,25.34 L25.14,25.34 L34.59,21.51 L43.81,25.34 Z M34.61,19.8 L26.3,16.38 L43.14,16.38 L34.61,19.8 Z" id="Shape" fill="#212121"></path>
            <polygon id="Path" fill="#FFFFFF" fill-rule="nonzero" points="65.8 44.14 67.11 40.88 66.58 39.28 58.02 39.28 57.49 40.88 58.8 44.14"></polygon>
            <path d="M66.12,49.06 L63.92,49.06 L63.92,47.39 L66.35,47.39 L66.35,45.77 L58.24,45.77 L58.24,47.39 L62.24,47.39 L62.24,49.06 L58.38,49.06 L51.7,58.54 C51.2053101,59.4045304 50.9466611,60.3839479 50.9499681,61.38 L50.9499681,64.46 C50.9443462,66.6812658 52.7288962,68.4925841 54.95,68.52 L69.52,68.52 C71.7346632,68.509569 73.5365993,66.7342624 73.58,64.52 L73.58,61.45 C73.6011675,60.3932723 73.3201513,59.3524716 72.77,58.45 L66.12,49.06 Z M66.35,62.06 C66.35,62.7044761 66.0939829,63.3225561 65.6382695,63.7782695 C65.1825561,64.2339829 64.5644761,64.49 63.92,64.49 L63.11,64.49 L63.11,65.3 L61.52,65.3 L61.52,64.49 L59.05,64.49 L59.05,62.79 L63.92,62.79 C64.3673506,62.79 64.73,62.4273506 64.73,61.98 L64.73,60.36 C64.73,59.9126494 64.3673506,59.55 63.92,59.55 L60.67,59.55 C59.3279481,59.55 58.24,58.4620519 58.24,57.12 L58.24,55.5 C58.24,54.1563208 59.3263321,53.0655069 60.67,53.06 L61.52,53.06 L61.52,52.25 L63.15,52.25 L63.15,53.06 L65.52,53.06 L65.52,54.69 L60.67,54.69 C60.2226494,54.69 59.86,55.0526494 59.86,55.5 L59.86,57.12 C59.8653957,57.5650965 60.2249035,57.9246043 60.67,57.93 L63.92,57.93 C65.2620519,57.93 66.35,59.0179481 66.35,60.36 L66.35,62.06 Z" id="Shape" fill="#FFFFFF" fill-rule="nonzero"></path>
            <path d="M75.23,64.48 C75.1646241,67.5849548 72.6256369,70.0661367 69.52,70.0600114 L55,70.0600114 C51.8653054,70.0544957 49.3255043,67.5146946 49.3199764,64.38 L49.3199764,61.33 C49.3166913,60.0231491 49.66188,58.7390475 50.32,57.61 L56.88,48.3 C56.695319,48.0326724 56.5975452,47.7149078 56.6,47.39 L56.6,45.77 C56.5978232,45.2906526 56.8106787,44.8355822 57.18,44.53 L55.85,41.21 C55.7851267,41.0289698 55.7851267,40.8310302 55.85,40.65 L56.66,38.22 C56.7655606,37.8842937 57.0781012,37.6569914 57.43,37.6599705 L67.16,37.6599705 C67.5118988,37.6569914 67.8244394,37.8842937 67.93,38.22 L68.74,40.65 C68.8048733,40.8310302 68.8048733,41.0289698 68.74,41.21 L67.41,44.53 C67.7759427,44.8381847 67.9880136,45.2915777 67.99,45.77 L67.99,47.39 C67.9975847,47.7512617 67.8811123,48.1042084 67.66,48.39 L74.21,57.53 C74.9247232,58.7083513 75.2985826,60.0618609 75.2901445,61.44 L75.23,64.48 Z" id="Path" fill="#FFFFFF" fill-rule="nonzero"></path>
            <path d="M67.64,48.36 C67.8611123,48.0742084 67.9775847,47.7212617 67.97,47.36 L67.97,45.77 C67.9680136,45.2915777 67.7559427,44.8381847 67.39,44.53 L68.72,41.21 C68.7848733,41.0289698 68.7848733,40.8310302 68.72,40.65 L67.91,38.22 C67.8044394,37.8842937 67.4918988,37.6569914 67.14,37.6599705 L57.43,37.6599705 C57.0781012,37.6569914 56.7655606,37.8842937 56.66,38.22 L55.85,40.65 C55.7851267,40.8310302 55.7851267,41.0289698 55.85,41.21 L57.18,44.53 C56.8106787,44.8355822 56.5978232,45.2906526 56.6,45.77 L56.6,47.39 C56.5975452,47.7149078 56.695319,48.0326724 56.88,48.3 L50.32,57.61 C49.66188,58.7390475 49.3166913,60.0231491 49.3199764,61.33 L49.3199764,64.41 C49.34195,67.5329726 51.876955,70.0545885 55,70.06 L69.52,70.06 C72.6254204,70.0494906 75.1509845,67.5550513 75.2001445,64.45 L75.2001445,61.38 C75.2085826,60.0018609 74.8347232,58.6483513 74.12,57.47 L67.64,48.36 Z M58.01,39.28 L66.57,39.28 L67.11,40.88 L65.8,44.15 L58.8,44.15 L57.52,40.88 L58.01,39.28 Z M73.61,64.46 C73.5665993,66.6742624 71.7646632,68.449569 69.55,68.46 L55,68.46 C52.7788962,68.4325841 50.9943462,66.6212658 50.9999681,64.4 L50.9999681,61.33 C50.9966611,60.3339479 51.2553101,59.3545304 51.75,58.49 L58.38,49.06 L62.29,49.06 L62.29,47.39 L58.29,47.39 L58.29,45.77 L66.4,45.77 L66.4,47.39 L63.92,47.39 L63.92,49.06 L66.12,49.06 L72.83,58.44 C73.3801513,59.3424716 73.6611675,60.3832723 73.64,61.44 L73.61,64.46 Z" id="Shape" fill="#212121"></path>
            <path d="M63.92,57.93 L60.67,57.93 C60.2249035,57.9246043 59.8653957,57.5650965 59.86,57.12 L59.86,55.5 C59.86,55.0526494 60.2226494,54.69 60.67,54.69 L65.52,54.69 L65.52,53.06 L63.11,53.06 L63.11,52.25 L61.52,52.25 L61.52,53.06 L60.71,53.06 C59.3663321,53.0655069 58.28,54.1563208 58.28,55.5 L58.28,57.12 C58.28,58.4620519 59.3679481,59.55 60.71,59.55 L63.92,59.55 C64.3673506,59.55 64.73,59.9126494 64.73,60.36 L64.73,61.98 C64.73,62.4273506 64.3673506,62.79 63.92,62.79 L59.05,62.79 L59.05,64.41 L61.52,64.41 L61.52,65.22 L63.15,65.22 L63.15,64.41 L63.96,64.41 C64.6044761,64.41 65.2225561,64.1539829 65.6782695,63.6982695 C66.1339829,63.2425561 66.39,62.6244761 66.39,61.98 L66.39,60.36 C66.3900883,59.7085332 66.1285876,59.0843132 65.664186,58.6274323 C65.1997845,58.1705514 64.5713785,57.9192763 63.92,57.93 Z" id="Path" fill="#212121"></path>
        </g>
    </g>
</svg>