<?xml version="1.0" encoding="UTF-8"?>
<svg width="80px" height="80px" viewBox="0 0 80 80" version="1.1" xmlns="http://www.w3.org/2000/svg" xmlns:xlink="http://www.w3.org/1999/xlink">
    <title>programs-checklist-icon</title>
    <g id="programs-checklist-icon" stroke="none" stroke-width="1" fill="none" fill-rule="evenodd">
        <rect id="Rectangle" x="0" y="0" width="80" height="80"></rect>
        <path d="M33.8256881,0 C37.3730887,0 40.3088685,2.6911315 40.7981651,6.11620795 L40.7981651,6.11620795 L46.9143731,6.11620795 C48.7492355,6.11620795 50.3394495,7.58409786 50.3394495,9.5412844 L50.3394495,9.5412844 L50.3394495,10.3975535 L64.8960245,10.3975535 L64.8960245,42.5688073 C71.7461774,44.1590214 76.883792,50.2752294 76.883792,57.6146789 C76.883792,64.9541284 71.7461774,71.0703364 64.8960245,72.5382263 L64.8960245,72.5382263 L64.8960245,80 L3,80 L3,10.3975535 L17.3119266,10.3975535 L17.3119266,9.5412844 C17.3119266,7.70642202 18.7798165,6.11620795 20.7370031,6.11620795 L20.7370031,6.11620795 L26.853211,6.11620795 C27.3425076,2.6911315 30.2782875,0 33.8256881,0 Z M17.5565749,12.2324159 L4.83486239,12.2324159 L4.83486239,78.1651376 L63.0611621,78.1651376 L63.0611621,72.7828746 C62.5718654,72.9051988 61.9602446,72.9051988 61.470948,72.9051988 C53.030581,72.9051988 46.058104,65.9327217 46.058104,57.4923547 C46.058104,49.0519878 52.9082569,42.0795107 61.470948,42.0795107 C61.9602446,42.0795107 62.5718654,42.2018349 63.0611621,42.2018349 L63.0611621,42.2018349 L63.0611621,12.2324159 L50.3394495,12.2324159 L50.3394495,15.5351682 L17.5565749,15.5351682 L17.5565749,12.2324159 Z M25.5076453,59.3272171 L25.5076453,74.3730887 L10.5840979,74.3730887 L10.5840979,59.3272171 L25.5076453,59.3272171 Z M23.6727829,61.1620795 L12.4189602,61.1620795 L12.4189602,72.4159021 L23.6727829,72.4159021 L23.6727829,61.1620795 Z M61.470948,44.0366972 C54.0091743,44.0366972 47.8929664,50.1529052 47.8929664,57.6146789 C47.8929664,65.0764526 54.0091743,71.1926606 61.470948,71.1926606 C68.9327217,71.1926606 75.0489297,65.0764526 75.0489297,57.6146789 C75.0489297,50.1529052 68.9327217,44.0366972 61.470948,44.0366972 Z M48.5045872,68.7461774 L48.5045872,70.5810398 L30.0336391,70.5810398 L30.0336391,68.7461774 L48.5045872,68.7461774 Z M43.6116208,63.1192661 L43.6116208,64.9541284 L30.0336391,64.9541284 L30.0336391,63.1192661 L43.6116208,63.1192661 Z M68.4434251,51.3761468 L69.7889908,52.7217125 L58.1681957,64.3425076 L53.1529052,59.3272171 L54.4984709,58.1039755 L58.1681957,61.7737003 L68.4434251,51.3761468 Z M25.5076453,40 L25.5076453,55.0458716 L10.5840979,55.0458716 L10.5840979,40 L25.5076453,40 Z M23.6727829,41.8348624 L12.4189602,41.8348624 L12.4189602,53.088685 L23.6727829,53.088685 L23.6727829,41.8348624 Z M43.9785933,49.4189602 L43.9785933,51.2538226 L30.0336391,51.2538226 L30.0336391,49.4189602 L43.9785933,49.4189602 Z M49.7278287,43.7920489 L49.7278287,45.6269113 L30.0336391,45.6269113 L30.0336391,43.7920489 L49.7278287,43.7920489 Z M25.5076453,20.795107 L25.5076453,35.7186544 L10.5840979,35.7186544 L10.5840979,20.795107 L25.5076453,20.795107 Z M23.6727829,22.5076453 L12.4189602,22.5076453 L12.4189602,33.7614679 L23.6727829,33.7614679 L23.6727829,22.5076453 Z M53.764526,30.0917431 L53.764526,31.9266055 L30.0336391,31.9266055 L30.0336391,30.0917431 L53.764526,30.0917431 Z M57.8012232,24.4648318 L57.8012232,26.2996942 L30.0336391,26.2996942 L30.0336391,24.4648318 L57.8012232,24.4648318 Z M33.8256881,1.83486239 C31.0122324,1.83486239 28.6880734,4.15902141 28.6880734,6.97247706 L28.6880734,6.97247706 L28.6880734,7.95107034 L20.8593272,7.95107034 C20.0030581,7.95107034 19.2691131,8.68501529 19.2691131,9.5412844 L19.2691131,9.5412844 L19.2691131,13.7003058 L48.382263,13.7003058 L48.382263,9.41896024 C48.382263,8.56269113 47.648318,7.82874618 46.7920489,7.82874618 L46.7920489,7.82874618 L38.9633028,7.82874618 L38.9633028,6.97247706 C38.9633028,4.15902141 36.6391437,1.83486239 33.8256881,1.83486239 Z M34.9266055,6.36085627 L34.9266055,8.19571865 L32.969419,8.19571865 L32.969419,6.36085627 L34.9266055,6.36085627 Z" fill="#000000" fill-rule="nonzero"></path>
    </g>
</svg>